<svg width="33" height="33" viewBox="0 0 33 33" fill="none" xmlns="http://www.w3.org/2000/svg">
<path d="M9.68071 30.1901H23.654C27.334 30.1901 28.8007 27.9368 28.974 25.1901L29.6674 14.1768C29.854 11.2968 27.5607 8.85677 24.6674 8.85677C23.854 8.85677 23.1074 8.3901 22.734 7.6701L21.774 5.73677C21.1607 4.52344 19.5607 3.52344 18.2007 3.52344H15.1474C13.774 3.52344 12.174 4.52344 11.5607 5.73677L10.6007 7.6701C10.2274 8.3901 9.48071 8.85677 8.66738 8.85677C5.77405 8.85677 3.48071 11.2968 3.66738 14.1768L4.36071 25.1901C4.52071 27.9368 6.00071 30.1901 9.68071 30.1901Z" stroke="#52CC00" stroke-width="2" stroke-linecap="round" stroke-linejoin="round"/>
<path d="M14.667 11.5234H18.667" stroke="#52CC00" stroke-width="2" stroke-linecap="round" stroke-linejoin="round"/>
<path d="M16.6668 24.8581C19.0535 24.8581 21.0002 22.9114 21.0002 20.5247C21.0002 18.1381 19.0535 16.1914 16.6668 16.1914C14.2802 16.1914 12.3335 18.1381 12.3335 20.5247C12.3335 22.9114 14.2802 24.8581 16.6668 24.8581Z" stroke="#52CC00" stroke-width="2" stroke-linecap="round" stroke-linejoin="round"/>
</svg>
